<?xml version="1.0" encoding="UTF-8"?>
<svg xmlns="http://www.w3.org/2000/svg" xmlns:xlink="http://www.w3.org/1999/xlink" width="360pt" height="181pt" viewBox="0 0 360 181" version="1.1">
<defs>
<clipPath id="clip1">
  <path d="M 8 0 L 352 0 L 352 180.238281 L 8 180.238281 Z M 8 0 "/>
</clipPath>
</defs>
<g id="surface1">
<g clip-path="url(#clip1)" clip-rule="nonzero">
<path style="fill:none;stroke-width:2;stroke-linecap:square;stroke-linejoin:miter;stroke:rgb(36.841382%,50.678264%,70.980392%);stroke-opacity:1;stroke-miterlimit:3.25;" d="M 246 14 L 246.9375 14 L 247.25 14.003906 L 247.871094 14.003906 L 248.183594 14.007813 L 248.496094 14.007813 L 250.371094 14.03125 L 250.992188 14.039063 L 251.617188 14.046875 L 252.242188 14.058594 L 252.867188 14.074219 L 253.488281 14.085938 L 254.738281 14.117188 L 255.984375 14.152344 L 256.296875 14.164063 L 256.605469 14.171875 L 257.230469 14.195313 L 258.476563 14.242188 L 258.785156 14.253906 L 259.097656 14.265625 L 259.71875 14.289063 L 260.964844 14.347656 L 261.273438 14.359375 L 261.585938 14.375 L 262.207031 14.40625 L 263.449219 14.472656 L 265.929688 14.617188 L 266.601563 14.65625 L 267.273438 14.703125 L 268.613281 14.792969 L 271.289063 14.992188 L 271.960938 15.046875 L 272.625 15.101563 L 273.960938 15.214844 L 276.625 15.460938 L 277.289063 15.523438 L 277.953125 15.589844 L 279.277344 15.726563 L 281.921875 16.015625 L 287.183594 16.660156 L 287.488281 16.703125 L 287.792969 16.742188 L 288.402344 16.824219 L 289.621094 16.992188 L 292.050781 17.339844 L 296.875 18.097656 L 297.476563 18.199219 L 299.269531 18.503906 L 301.652344 18.929688 L 306.371094 19.835938 L 306.660156 19.894531 L 306.945313 19.949219 L 307.519531 20.066406 L 308.664063 20.304688 L 310.941406 20.792969 L 315.453125 21.820313 L 315.734375 21.886719 L 316.011719 21.953125 L 316.570313 22.089844 L 317.683594 22.363281 L 319.898438 22.917969 L 324.273438 24.082031 L 324.566406 24.164063 L 324.863281 24.246094 L 325.449219 24.410156 L 326.617188 24.742188 L 328.9375 25.421875 L 333.511719 26.835938 L 334.074219 27.015625 L 334.636719 27.199219 L 335.761719 27.570313 L 337.984375 28.324219 L 342.359375 29.886719 L 342.613281 29.980469 L 342.863281 30.074219 L 343.367188 30.261719 L 344.367188 30.640625 L 346.347656 31.410156 L 350.238281 32.996094 L 350.480469 33.097656 L 352.148438 33.808594 L 354.03125 34.640625 L 357.71875 36.339844 L 357.960938 36.457031 L 358.207031 36.578125 L 358.699219 36.8125 L 359.671875 37.289063 L 361.589844 38.25 L 365.335938 40.222656 L 365.566406 40.347656 L 365.792969 40.472656 L 366.25 40.722656 L 367.15625 41.230469 L 368.945313 42.253906 L 372.417969 44.347656 L 372.625 44.476563 L 372.832031 44.609375 L 373.246094 44.871094 L 374.070313 45.394531 L 375.6875 46.457031 L 378.816406 48.621094 L 379.007813 48.757813 L 379.195313 48.894531 L 379.574219 49.171875 L 380.328125 49.722656 L 381.800781 50.835938 L 384.636719 53.097656 L 385.277344 53.628906 L 385.910156 54.167969 L 387.148438 55.246094 L 389.523438 57.433594 L 389.667969 57.574219 L 389.8125 57.710938 L 390.097656 57.988281 L 390.664063 58.542969 L 391.765625 59.660156 L 393.871094 61.914063 L 394.007813 62.070313 L 394.144531 62.222656 L 394.417969 62.53125 L 394.953125 63.152344 L 395.992188 64.398438 L 397.949219 66.914063 L 398.066406 67.074219 L 398.183594 67.230469 L 398.414063 67.550781 L 398.867188 68.183594 L 399.738281 69.460938 L 401.355469 72.039063 L 401.445313 72.191406 L 401.53125 72.339844 L 401.707031 72.644531 L 402.050781 73.25 L 402.789063 74.621094 L 403.023438 75.078125 L 403.328125 75.6875 L 403.910156 76.914063 L 403.980469 77.070313 L 404.050781 77.222656 L 404.1875 77.53125 L 404.453125 78.144531 L 404.960938 79.378906 L 405.078125 79.691406 L 405.199219 80 L 405.425781 80.621094 L 405.855469 81.863281 L 405.90625 82.015625 L 405.953125 82.167969 L 406.050781 82.472656 L 406.238281 83.082031 L 406.28125 83.234375 L 406.328125 83.386719 L 406.414063 83.695313 L 406.582031 84.304688 L 406.621094 84.457031 L 406.664063 84.613281 L 406.742188 84.917969 L 406.890625 85.53125 L 407.160156 86.761719 L 407.222656 87.066406 L 407.28125 87.375 L 407.390625 87.988281 L 407.417969 88.144531 L 407.445313 88.296875 L 407.496094 88.605469 L 407.585938 89.222656 L 407.609375 89.375 L 407.628906 89.53125 L 407.671875 89.839844 L 407.691406 89.992188 L 407.707031 90.148438 L 407.746094 90.453125 L 407.761719 90.609375 L 407.777344 90.761719 L 407.808594 91.070313 L 407.824219 91.226563 L 407.839844 91.378906 L 407.863281 91.6875 L 407.878906 91.855469 L 407.925781 92.527344 L 407.933594 92.695313 L 407.953125 93.027344 L 407.96875 93.363281 L 407.972656 93.53125 L 407.980469 93.699219 L 407.996094 94.371094 L 407.996094 94.539063 L 408 94.703125 L 408 95.375 L 407.992188 95.710938 L 407.992188 95.878906 L 407.988281 96.046875 L 407.980469 96.214844 L 407.976563 96.378906 L 407.96875 96.546875 L 407.964844 96.714844 L 407.949219 97.050781 L 407.9375 97.21875 L 407.929688 97.386719 L 407.917969 97.554688 L 407.910156 97.722656 L 407.898438 97.886719 L 407.882813 98.054688 L 407.859375 98.390625 L 407.828125 98.726563 L 407.796875 99.058594 L 407.722656 99.730469 L 407.703125 99.898438 L 407.683594 100.0625 L 407.640625 100.398438 L 407.542969 101.066406 L 407.519531 101.234375 L 407.492188 101.402344 L 407.4375 101.734375 L 407.320313 102.402344 L 407.292969 102.558594 L 407.261719 102.714844 L 407.203125 103.027344 L 407.074219 103.648438 L 407.039063 103.804688 L 407.007813 103.957031 L 406.9375 104.269531 L 406.789063 104.890625 L 406.75 105.046875 L 406.710938 105.199219 L 406.628906 105.511719 L 406.464844 106.132813 L 406.101563 107.367188 L 406.050781 107.523438 L 406.003906 107.679688 L 405.90625 107.988281 L 405.699219 108.605469 L 405.261719 109.835938 L 404.265625 112.289063 L 404.195313 112.453125 L 404.121094 112.617188 L 403.972656 112.949219 L 403.667969 113.609375 L 403.019531 114.925781 L 402.9375 115.089844 L 402.851563 115.253906 L 402.683594 115.582031 L 402.332031 116.238281 L 401.597656 117.542969 L 401.503906 117.707031 L 401.410156 117.867188 L 401.214844 118.195313 L 400.824219 118.84375 L 400.003906 120.136719 L 398.234375 122.699219 L 398.121094 122.855469 L 398.003906 123.011719 L 397.773438 123.324219 L 397.304688 123.945313 L 396.332031 125.183594 L 394.265625 127.640625 L 394.132813 127.792969 L 393.996094 127.945313 L 393.722656 128.246094 L 393.171875 128.851563 L 392.039063 130.058594 L 389.65625 132.4375 L 389.511719 132.574219 L 389.371094 132.714844 L 388.492188 133.535156 L 387.296875 134.621094 L 384.800781 136.769531 L 384.480469 137.035156 L 384.15625 137.300781 L 383.503906 137.828125 L 382.175781 138.875 L 379.421875 140.941406 L 379.230469 141.082031 L 379.039063 141.21875 L 378.652344 141.496094 L 377.875 142.046875 L 376.292969 143.136719 L 373.019531 145.273438 L 372.8125 145.40625 L 372.601563 145.539063 L 372.179688 145.800781 L 371.332031 146.324219 L 369.609375 147.355469 L 366.058594 149.382813 L 365.847656 149.5 L 365.636719 149.613281 L 365.210938 149.847656 L 364.355469 150.308594 L 362.625 151.21875 L 359.082031 153 L 358.628906 153.21875 L 358.179688 153.4375 L 357.269531 153.871094 L 355.425781 154.726563 L 351.667969 156.398438 L 351.152344 156.617188 L 350.632813 156.839844 L 349.589844 157.277344 L 347.480469 158.136719 L 343.179688 159.808594 L 342.085938 160.214844 L 340.984375 160.617188 L 338.765625 161.40625 L 334.246094 162.925781 L 333.96875 163.019531 L 333.125 163.289063 L 331.992188 163.644531 L 329.714844 164.347656 L 325.09375 165.691406 L 324.800781 165.773438 L 324.507813 165.851563 L 323.921875 166.015625 L 322.746094 166.332031 L 320.382813 166.957031 L 315.589844 168.144531 L 314.464844 168.410156 L 313.332031 168.671875 L 311.054688 169.183594 L 306.453125 170.148438 L 305.875 170.265625 L 305.296875 170.378906 L 304.132813 170.605469 L 301.796875 171.042969 L 297.085938 171.867188 L 296.765625 171.921875 L 296.445313 171.972656 L 295.800781 172.078125 L 294.515625 172.28125 L 291.925781 172.675781 L 291.601563 172.722656 L 291.277344 172.773438 L 290.628906 172.867188 L 289.328125 173.050781 L 286.714844 173.398438 L 286.058594 173.484375 L 284.089844 173.730469 L 281.457031 174.035156 L 276.160156 174.582031 L 275.847656 174.613281 L 275.539063 174.640625 L 274.917969 174.699219 L 273.675781 174.808594 L 271.183594 175.015625 L 269.933594 175.109375 L 268.6875 175.203125 L 266.183594 175.367188 L 265.871094 175.386719 L 265.554688 175.40625 L 264.929688 175.445313 L 263.675781 175.515625 L 263.359375 175.535156 L 263.046875 175.550781 L 262.417969 175.582031 L 261.164063 175.644531 L 260.847656 175.660156 L 260.535156 175.671875 L 258.648438 175.753906 L 258.015625 175.777344 L 257.386719 175.800781 L 256.128906 175.839844 L 255.820313 175.851563 L 255.507813 175.859375 L 254.890625 175.878906 L 253.347656 175.917969 L 253.039063 175.921875 L 252.417969 175.9375 L 252.109375 175.941406 L 251.800781 175.949219 L 251.183594 175.957031 L 250.871094 175.964844 L 249.636719 175.980469 L 249.324219 175.984375 L 249.015625 175.984375 L 248.398438 175.992188 L 248.085938 175.992188 L 247.777344 175.996094 L 247.160156 175.996094 L 246.851563 176 L 244.992188 176 L 244.683594 175.996094 L 244.066406 175.996094 L 243.753906 175.992188 L 243.445313 175.988281 L 243.136719 175.988281 L 242.519531 175.980469 L 242.207031 175.976563 L 240.972656 175.960938 L 240.660156 175.957031 L 240.042969 175.945313 L 239.734375 175.9375 L 239.425781 175.933594 L 238.804688 175.921875 L 237.570313 175.890625 L 236.332031 175.855469 L 236 175.84375 L 235.664063 175.835938 L 234.992188 175.8125 L 233.65625 175.765625 L 233.320313 175.75 L 232.984375 175.738281 L 232.316406 175.710938 L 230.976563 175.652344 L 230.644531 175.636719 L 230.308594 175.621094 L 228.304688 175.515625 L 225.640625 175.359375 L 225.304688 175.335938 L 224.972656 175.316406 L 224.308594 175.269531 L 222.976563 175.179688 L 220.320313 174.976563 L 219.992188 174.949219 L 218.996094 174.867188 L 217.675781 174.753906 L 215.035156 174.507813 L 214.417969 174.445313 L 212.578125 174.257813 L 210.128906 173.988281 L 209.519531 173.917969 L 208.90625 173.847656 L 207.6875 173.703125 L 205.257813 173.398438 L 204.957031 173.355469 L 204.652344 173.316406 L 204.046875 173.238281 L 202.835938 173.070313 L 200.425781 172.730469 L 195.640625 171.988281 L 195.316406 171.933594 L 194.996094 171.878906 L 194.351563 171.773438 L 193.066406 171.554688 L 190.503906 171.097656 L 185.433594 170.125 L 185.117188 170.0625 L 184.804688 170 L 184.175781 169.871094 L 182.921875 169.609375 L 180.429688 169.066406 L 175.5 167.925781 L 175.199219 167.855469 L 174.898438 167.78125 L 173.105469 167.335938 L 170.734375 166.726563 L 166.054688 165.449219 L 165.476563 165.285156 L 164.898438 165.117188 L 163.746094 164.78125 L 161.460938 164.097656 L 156.957031 162.667969 L 156.695313 162.582031 L 156.4375 162.496094 L 155.917969 162.324219 L 154.886719 161.976563 L 152.84375 161.269531 L 148.816406 159.804688 L 148.570313 159.714844 L 148.320313 159.621094 L 147.824219 159.429688 L 146.839844 159.054688 L 144.882813 158.285156 L 141.042969 156.703125 L 140.789063 156.59375 L 140.53125 156.484375 L 140.019531 156.261719 L 139.003906 155.820313 L 136.996094 154.921875 L 133.0625 153.070313 L 132.824219 152.953125 L 132.582031 152.835938 L 132.101563 152.601563 L 131.144531 152.125 L 129.257813 151.160156 L 125.585938 149.183594 L 125.164063 148.949219 L 124.746094 148.714844 L 123.914063 148.242188 L 122.273438 147.289063 L 119.082031 145.339844 L 118.886719 145.214844 L 118.695313 145.09375 L 118.304688 144.84375 L 117.535156 144.347656 L 116.015625 143.34375 L 113.074219 141.300781 L 112.898438 141.171875 L 112.722656 141.046875 L 112.371094 140.792969 L 111.679688 140.28125 L 110.3125 139.253906 L 107.679688 137.164063 L 107.519531 137.03125 L 107.359375 136.902344 L 106.410156 136.105469 L 105.175781 135.039063 L 102.800781 132.875 L 102.488281 132.578125 L 102.179688 132.28125 L 101.566406 131.683594 L 100.375 130.484375 L 98.105469 128.058594 L 97.96875 127.90625 L 97.835938 127.753906 L 97.566406 127.445313 L 97.035156 126.832031 L 96 125.597656 L 94.058594 123.101563 L 93.953125 122.953125 L 93.84375 122.804688 L 93.210938 121.925781 L 92.398438 120.742188 L 90.882813 118.359375 L 90.703125 118.0625 L 90.527344 117.761719 L 90.179688 117.160156 L 89.515625 115.957031 L 88.296875 113.535156 L 88.21875 113.367188 L 88.144531 113.203125 L 87.992188 112.875 L 87.699219 112.210938 L 87.144531 110.886719 L 87.082031 110.71875 L 87.015625 110.554688 L 86.886719 110.222656 L 86.636719 109.554688 L 86.171875 108.222656 L 86.0625 107.886719 L 85.957031 107.554688 L 85.703125 106.714844 L 85.65625 106.546875 L 85.558594 106.214844 L 85.378906 105.542969 L 85.207031 104.871094 L 85.046875 104.199219 L 84.761719 102.851563 L 84.730469 102.691406 L 84.703125 102.535156 L 84.644531 102.21875 L 84.535156 101.589844 L 84.511719 101.433594 L 84.488281 101.273438 L 84.4375 100.960938 L 84.351563 100.328125 L 84.332031 100.171875 L 84.3125 100.011719 L 84.273438 99.699219 L 84.253906 99.539063 L 84.238281 99.382813 L 84.203125 99.066406 L 84.1875 98.910156 L 84.171875 98.75 L 84.144531 98.433594 L 84.132813 98.277344 L 84.121094 98.117188 L 84.097656 97.800781 L 84.085938 97.644531 L 84.078125 97.488281 L 84.066406 97.328125 L 84.058594 97.171875 L 84.050781 97.011719 L 84.042969 96.855469 L 84.035156 96.695313 L 84.027344 96.539063 L 84.023438 96.378906 L 84.019531 96.222656 L 84.015625 96.0625 L 84.011719 95.90625 L 84.007813 95.746094 L 84.003906 95.589844 L 84.003906 95.429688 L 84 95.273438 L 84 94.640625 L 84.003906 94.484375 L 84.003906 94.324219 L 84.007813 94.167969 L 84.011719 94.007813 L 84.015625 93.851563 L 84.019531 93.691406 L 84.027344 93.535156 L 84.03125 93.375 L 84.039063 93.21875 L 84.046875 93.058594 L 84.0625 92.742188 L 84.070313 92.589844 L 84.082031 92.433594 L 84.101563 92.125 L 84.125 91.8125 L 84.152344 91.503906 L 84.164063 91.347656 L 84.179688 91.195313 L 84.210938 90.886719 L 84.277344 90.265625 L 84.296875 90.109375 L 84.3125 89.957031 L 84.355469 89.648438 L 84.441406 89.027344 L 84.464844 88.875 L 84.488281 88.71875 L 84.535156 88.410156 L 84.640625 87.792969 L 84.671875 87.636719 L 84.699219 87.484375 L 84.757813 87.175781 L 84.882813 86.558594 L 84.914063 86.402344 L 84.949219 86.25 L 85.015625 85.941406 L 85.160156 85.324219 L 85.195313 85.171875 L 85.234375 85.019531 L 85.3125 84.710938 L 85.472656 84.097656 L 85.828125 82.867188 L 85.878906 82.703125 L 85.929688 82.535156 L 86.035156 82.203125 L 86.253906 81.539063 L 86.722656 80.214844 L 86.78125 80.050781 L 86.84375 79.886719 L 86.972656 79.554688 L 87.234375 78.894531 L 87.792969 77.578125 L 87.863281 77.414063 L 88.085938 76.921875 L 88.390625 76.269531 L 89.035156 74.960938 L 90.453125 72.367188 L 90.539063 72.214844 L 90.628906 72.066406 L 90.808594 71.765625 L 91.171875 71.164063 L 91.929688 69.96875 L 93.554688 67.589844 L 93.664063 67.445313 L 93.769531 67.296875 L 93.984375 67 L 94.425781 66.414063 L 95.328125 65.242188 L 97.246094 62.921875 L 97.378906 62.765625 L 97.789063 62.296875 L 98.34375 61.675781 L 99.484375 60.441406 L 101.886719 58 L 102.042969 57.851563 L 102.199219 57.699219 L 102.515625 57.398438 L 103.152344 56.796875 L 104.453125 55.601563 L 107.179688 53.246094 L 107.351563 53.105469 L 107.527344 52.960938 L 107.875 52.675781 L 108.578125 52.109375 L 110.007813 50.980469 L 112.984375 48.761719 L 113.367188 48.488281 L 113.753906 48.214844 L 114.527344 47.671875 L 116.109375 46.59375 L 119.371094 44.480469 L 120.152344 43.996094 L 120.941406 43.511719 L 122.539063 42.554688 L 125.824219 40.683594 L 126.03125 40.566406 L 126.242188 40.453125 L 126.664063 40.222656 L 127.507813 39.765625 L 129.222656 38.859375 L 132.730469 37.089844 L 133.699219 36.621094 L 134.679688 36.152344 L 136.65625 35.234375 L 140.703125 33.445313 L 141.734375 33.007813 L 142.773438 32.574219 L 144.867188 31.722656 L 149.144531 30.070313 L 150.160156 29.695313 L 151.179688 29.324219 L 153.234375 28.59375 L 157.417969 27.183594 L 157.679688 27.097656 L 158.476563 26.839844 L 159.539063 26.5 L 161.683594 25.835938 L 166.03125 24.558594 L 166.300781 24.480469 L 166.570313 24.40625 L 167.109375 24.253906 L 168.191406 23.953125 L 170.367188 23.371094 L 174.777344 22.25 L 175.054688 22.179688 L 175.332031 22.113281 L 177.007813 21.714844 L 179.25 21.195313 L 183.789063 20.210938 L 184.097656 20.144531 L 184.410156 20.082031 L 186.273438 19.707031 L 188.777344 19.222656 L 193.828125 18.316406 L 194.460938 18.207031 L 195.097656 18.101563 L 196.375 17.894531 L 198.933594 17.492188 L 204.09375 16.757813 L 204.398438 16.714844 L 204.699219 16.675781 L 205.304688 16.597656 L 206.519531 16.441406 L 208.949219 16.148438 L 209.253906 16.109375 L 209.558594 16.074219 L 210.171875 16.007813 L 211.390625 15.871094 L 213.84375 15.613281 L 214.148438 15.582031 L 214.457031 15.550781 L 215.070313 15.488281 L 216.300781 15.371094 L 218.765625 15.152344 L 219.074219 15.125 L 219.382813 15.101563 L 220 15.050781 L 221.234375 14.953125 L 223.710938 14.769531 L 224.40625 14.722656 L 225.097656 14.675781 L 226.484375 14.589844 L 226.832031 14.570313 L 227.175781 14.546875 L 227.871094 14.507813 L 229.261719 14.433594 L 229.609375 14.414063 L 229.957031 14.398438 L 230.652344 14.363281 L 232.390625 14.285156 L 232.738281 14.273438 L 233.4375 14.242188 L 234.828125 14.191406 L 235.179688 14.179688 L 235.527344 14.167969 L 236.222656 14.148438 L 236.574219 14.136719 L 236.921875 14.128906 L 237.621094 14.109375 L 237.96875 14.101563 L 238.316406 14.089844 L 239.015625 14.074219 L 239.363281 14.066406 L 239.714844 14.0625 L 240.410156 14.046875 L 240.761719 14.042969 L 241.109375 14.035156 L 241.460938 14.03125 L 242.15625 14.023438 L 242.507813 14.019531 L 242.855469 14.015625 L 243.207031 14.011719 L 243.554688 14.007813 L 243.902344 14.007813 L 244.253906 14.003906 L 244.601563 14.003906 L 244.953125 14 L 246 14 " transform="matrix(1,0,0,1,-66,-5)"/>
</g>
</g>
</svg>
