<?xml version="1.0" encoding="UTF-8"?>
<svg xmlns="http://www.w3.org/2000/svg" xmlns:xlink="http://www.w3.org/1999/xlink" width="360pt" height="223pt" viewBox="0 0 360 223" version="1.1">
<g id="surface6">
<path style="fill:none;stroke-width:2;stroke-linecap:square;stroke-linejoin:miter;stroke:rgb(36.841382%,50.678264%,70.980392%);stroke-opacity:1;stroke-miterlimit:3.25;" d="M 73.199219 116.246094 L 73.304688 116.054688 L 73.410156 115.859375 L 73.625 115.472656 L 74.046875 114.703125 L 74.894531 113.160156 L 76.59375 110.074219 L 79.984375 103.929688 L 87.339844 90.792969 L 94.203125 78.933594 L 100.9375 67.871094 L 108.238281 56.691406 L 115.054688 47.203125 L 122.441406 38.117188 L 122.894531 37.601563 L 123.347656 37.09375 L 124.253906 36.09375 L 126.066406 34.160156 L 129.691406 30.5625 L 129.796875 30.464844 L 129.902344 30.363281 L 130.117188 30.167969 L 130.539063 29.777344 L 131.382813 29.011719 L 133.074219 27.542969 L 133.285156 27.363281 L 133.496094 27.1875 L 133.921875 26.839844 L 134.765625 26.15625 L 136.457031 24.855469 L 136.570313 24.773438 L 136.6875 24.6875 L 136.914063 24.519531 L 137.375 24.1875 L 138.289063 23.542969 L 140.125 22.335938 L 140.238281 22.261719 L 140.351563 22.191406 L 140.582031 22.050781 L 141.039063 21.769531 L 141.957031 21.230469 L 143.792969 20.230469 L 144.003906 20.121094 L 144.21875 20.011719 L 144.648438 19.800781 L 145.503906 19.394531 L 145.609375 19.34375 L 145.71875 19.296875 L 145.929688 19.199219 L 146.359375 19.011719 L 147.214844 18.652344 L 147.320313 18.609375 L 147.429688 18.566406 L 147.644531 18.480469 L 148.070313 18.316406 L 148.925781 18.003906 L 149.035156 17.964844 L 149.140625 17.929688 L 149.355469 17.855469 L 149.78125 17.714844 L 150.636719 17.449219 L 150.742188 17.417969 L 150.847656 17.390625 L 151.058594 17.328125 L 151.476563 17.214844 L 151.898438 17.105469 L 152.316406 17 L 152.527344 16.953125 L 152.734375 16.902344 L 153.15625 16.8125 L 153.996094 16.644531 L 154.101563 16.625 L 154.203125 16.605469 L 154.414063 16.570313 L 154.832031 16.5 L 155.253906 16.4375 L 155.671875 16.378906 L 155.777344 16.367188 L 155.882813 16.351563 L 156.199219 16.316406 L 156.300781 16.304688 L 156.511719 16.28125 L 156.617188 16.273438 L 156.722656 16.261719 L 156.929688 16.242188 L 157.035156 16.234375 L 157.140625 16.222656 L 157.351563 16.207031 L 157.691406 16.183594 L 157.804688 16.179688 L 157.921875 16.171875 L 158.035156 16.164063 L 158.261719 16.152344 L 158.714844 16.136719 L 158.832031 16.132813 L 158.945313 16.132813 L 159.058594 16.128906 L 159.171875 16.128906 L 159.285156 16.125 L 159.96875 16.125 L 160.082031 16.128906 L 160.195313 16.128906 L 160.421875 16.136719 L 160.539063 16.140625 L 160.992188 16.15625 L 161.105469 16.164063 L 161.21875 16.167969 L 161.335938 16.175781 L 161.449219 16.179688 L 161.902344 16.210938 L 162.015625 16.222656 L 162.128906 16.230469 L 162.359375 16.25 L 162.925781 16.308594 L 163.042969 16.320313 L 163.269531 16.347656 L 163.722656 16.40625 L 163.835938 16.421875 L 163.953125 16.4375 L 164.632813 16.542969 L 164.742188 16.5625 L 164.847656 16.578125 L 165.058594 16.617188 L 165.484375 16.695313 L 165.589844 16.71875 L 165.695313 16.738281 L 165.910156 16.78125 L 166.332031 16.875 L 166.441406 16.898438 L 166.546875 16.921875 L 166.757813 16.972656 L 167.183594 17.074219 L 168.03125 17.296875 L 168.136719 17.328125 L 168.246094 17.359375 L 168.457031 17.417969 L 168.882813 17.546875 L 169.730469 17.816406 L 171.429688 18.429688 L 171.546875 18.476563 L 171.660156 18.523438 L 171.890625 18.613281 L 172.351563 18.804688 L 173.273438 19.203125 L 175.113281 20.082031 L 175.226563 20.140625 L 175.34375 20.199219 L 175.574219 20.316406 L 176.035156 20.558594 L 176.953125 21.066406 L 178.796875 22.160156 L 179.023438 22.300781 L 179.25 22.445313 L 179.699219 22.734375 L 180.605469 23.335938 L 182.414063 24.613281 L 186.027344 27.460938 L 186.238281 27.640625 L 186.449219 27.816406 L 186.871094 28.179688 L 187.714844 28.921875 L 189.402344 30.464844 L 192.773438 33.789063 L 193 34.023438 L 193.230469 34.261719 L 193.6875 34.742188 L 194.601563 35.722656 L 196.429688 37.742188 L 200.085938 42.046875 L 206.914063 50.9375 L 214.3125 61.707031 L 221.578125 73.234375 L 228.351563 84.671875 L 235.699219 97.605469 L 242.558594 109.988281 L 249.285156 122.21875 L 256.578125 135.382813 L 263.386719 147.371094 L 270.765625 159.816406 L 278.007813 171.277344 L 284.765625 181.113281 L 292.09375 190.667969 L 292.199219 190.796875 L 292.308594 190.925781 L 292.519531 191.183594 L 292.949219 191.699219 L 293.804688 192.710938 L 295.511719 194.683594 L 298.933594 198.398438 L 299.039063 198.507813 L 299.140625 198.617188 L 299.351563 198.832031 L 299.769531 199.261719 L 300.609375 200.105469 L 302.285156 201.734375 L 302.496094 201.929688 L 302.703125 202.128906 L 303.125 202.515625 L 303.960938 203.28125 L 305.636719 204.75 L 305.75 204.84375 L 305.867188 204.941406 L 306.09375 205.132813 L 306.546875 205.511719 L 307.457031 206.25 L 309.277344 207.648438 L 309.390625 207.734375 L 309.503906 207.816406 L 309.730469 207.984375 L 310.183594 208.3125 L 311.09375 208.949219 L 312.914063 210.148438 L 313.019531 210.214844 L 313.125 210.285156 L 313.335938 210.414063 L 313.761719 210.675781 L 314.609375 211.175781 L 316.308594 212.113281 L 316.730469 212.332031 L 317.15625 212.546875 L 318.003906 212.957031 L 319.703125 213.710938 L 319.816406 213.757813 L 319.933594 213.804688 L 320.160156 213.898438 L 320.621094 214.082031 L 321.542969 214.421875 L 321.65625 214.464844 L 321.773438 214.503906 L 322 214.582031 L 322.460938 214.738281 L 323.382813 215.023438 L 323.609375 215.09375 L 323.839844 215.15625 L 324.300781 215.285156 L 324.417969 215.316406 L 324.53125 215.34375 L 324.761719 215.402344 L 325.222656 215.515625 L 325.449219 215.570313 L 325.679688 215.621094 L 326.140625 215.71875 L 327.0625 215.894531 L 327.167969 215.914063 L 327.277344 215.933594 L 327.492188 215.96875 L 327.917969 216.035156 L 328.027344 216.050781 L 328.132813 216.066406 L 328.347656 216.097656 L 328.777344 216.152344 L 328.886719 216.164063 L 328.992188 216.175781 L 329.207031 216.199219 L 329.316406 216.210938 L 329.421875 216.222656 L 329.636719 216.242188 L 329.746094 216.25 L 329.851563 216.261719 L 330.066406 216.277344 L 330.175781 216.285156 L 330.28125 216.292969 L 330.496094 216.308594 L 330.605469 216.3125 L 330.710938 216.320313 L 330.820313 216.328125 L 330.925781 216.332031 L 331.035156 216.335938 L 331.140625 216.339844 L 331.25 216.34375 L 331.460938 216.351563 L 331.570313 216.355469 L 331.675781 216.359375 L 331.785156 216.363281 L 332 216.363281 L 332.105469 216.367188 L 332.75 216.367188 L 332.859375 216.363281 L 332.964844 216.363281 L 333.074219 216.359375 L 333.179688 216.359375 L 333.289063 216.355469 L 333.394531 216.351563 L 333.503906 216.347656 L 333.609375 216.34375 L 333.71875 216.339844 L 333.933594 216.328125 L 334.039063 216.324219 L 334.144531 216.316406 L 334.351563 216.304688 L 334.984375 216.257813 L 335.195313 216.238281 L 335.617188 216.195313 L 336.039063 216.148438 L 336.457031 216.09375 L 336.5625 216.082031 L 336.878906 216.035156 L 337.300781 215.96875 L 337.511719 215.9375 L 337.722656 215.898438 L 338.144531 215.824219 L 338.25 215.800781 L 338.351563 215.78125 L 338.984375 215.652344 L 339.195313 215.605469 L 339.40625 215.554688 L 339.828125 215.457031 L 340.667969 215.238281 L 340.785156 215.207031 L 340.898438 215.175781 L 341.125 215.109375 L 341.582031 214.976563 L 342.496094 214.6875 L 342.722656 214.609375 L 342.953125 214.53125 L 343.410156 214.367188 L 344.324219 214.023438 L 344.4375 213.980469 L 344.550781 213.933594 L 344.78125 213.84375 L 345.238281 213.652344 L 346.148438 213.253906 L 347.976563 212.378906 L 348.082031 212.324219 L 348.191406 212.269531 L 348.402344 212.160156 L 348.828125 211.933594 L 349.683594 211.464844 L 351.386719 210.460938 L 351.492188 210.394531 L 351.601563 210.328125 L 351.8125 210.195313 L 352.238281 209.925781 L 353.089844 209.367188 L 354.796875 208.183594 L 354.914063 208.097656 L 355.027344 208.015625 L 355.257813 207.84375 L 355.71875 207.503906 L 356.644531 206.796875 L 358.492188 205.3125 L 362.1875 202.042969 L 362.300781 201.933594 L 362.414063 201.828125 L 362.640625 201.613281 L 363.09375 201.179688 L 364 200.292969 L 365.816406 198.453125 L 369.445313 194.507813 L 376.210938 186.25 L 383.550781 176.105469 L 390.402344 165.667969 L 397.121094 154.695313 L 404.410156 142.144531 L 411.207031 130.019531 L 411.328125 129.804688 L 411.445313 129.59375 L 411.683594 129.164063 L 412.15625 128.308594 L 413.105469 126.589844 L 415.003906 123.148438 L 415.121094 122.933594 L 415.242188 122.71875 L 415.480469 122.289063 L 415.953125 121.425781 L 416.902344 119.699219 L 417.019531 119.484375 L 417.140625 119.269531 L 417.375 118.835938 L 417.851563 117.972656 L 417.96875 117.757813 L 418.089844 117.542969 L 418.324219 117.109375 L 418.445313 116.894531 L 418.5625 116.679688 L 418.679688 116.460938 L 418.800781 116.246094 " transform="matrix(1,0,0,1,-66,-5)"/>
</g>
</svg>
